<?xml version="1.0" encoding="UTF-8"?>
<svg id="Capa_1" data-name="Capa 1" xmlns="http://www.w3.org/2000/svg" viewBox="0 0 261.68 261.68">
  <defs>
    <style>
      .cls-1 {
        fill: #fff;
      }

      .cls-2 {
        fill: #ffe042;
      }
    </style>
  </defs>
  <path class="cls-2" d="M261.68,130.84c0,72.26-58.58,130.84-130.84,130.84h0C58.58,261.68,0,203.1,0,130.84h0C0,58.58,58.58,0,130.84,0h0c72.26,0,130.84,58.58,130.84,130.84h0Z"/>
  <path class="cls-1" d="M169.61,120.69l-2.18,17.5c-.37,2.93-2.84,5.12-5.78,5.12h-28.35v73.18c-2.99.27-6.02.41-9.08.41-6.85,0-13.54-.69-20-1.99v-71.6h-21.81c-2,0-3.63-1.64-3.63-3.65v-21.9c0-2.01,1.63-3.65,3.63-3.65h21.81v-32.85c0-20.16,16.27-36.5,36.35-36.5h25.44c2,0,3.64,1.64,3.64,3.65v21.9c0,2.01-1.63,3.65-3.64,3.65h-18.17c-8.03,0-14.54,6.54-14.54,14.6v25.55h30.53c3.5,0,6.21,3.08,5.78,6.57Z"/>
</svg>