<?xml version="1.0" encoding="UTF-8"?>
<svg id="Capa_1" data-name="Capa 1" xmlns="http://www.w3.org/2000/svg" viewBox="0 0 261.68 261.68">
  <defs>
    <style>
      .cls-1 {
        fill: #fff;
      }

      .cls-2 {
        fill: #ffe042;
      }
    </style>
  </defs>
  <path class="cls-2" d="M261.68,130.84c0,72.26-58.58,130.84-130.84,130.84h0C58.58,261.68,0,203.1,0,130.84h0C0,58.58,58.58,0,130.84,0h0c72.26,0,130.84,58.58,130.84,130.84h0Z"/>
  <path class="cls-1" d="M166.34,62.21h-71c-18.29,0-33.13,14.84-33.13,33.13v71c0,18.29,14.84,33.13,33.13,33.13h71c18.29,0,33.13-14.84,33.13-33.13v-71c0-18.29-14.84-33.13-33.13-33.13ZM187.64,163.97c0,13.06-10.6,23.67-23.67,23.67h-66.26c-13.06,0-23.67-10.6-23.67-23.67v-66.26c0-13.06,10.6-23.67,23.67-23.67h66.26c13.06,0,23.67,10.6,23.67,23.67v66.26Z"/>
  <path class="cls-1" d="M130.91,95.34c-19.6,0-35.5,15.9-35.5,35.5s15.9,35.5,35.5,35.5,35.5-15.9,35.5-35.5-15.9-35.5-35.5-35.5ZM130.91,154.51c-13.04,0-23.67-10.63-23.67-23.67s10.63-23.67,23.67-23.67,23.67,10.63,23.67,23.67-10.63,23.67-23.67,23.67Z"/>
  <circle class="cls-1" cx="168.77" cy="92.98" r="7.1"/>
</svg>