<?xml version="1.0" encoding="UTF-8"?>
<svg id="Capa_1" data-name="Capa 1" xmlns="http://www.w3.org/2000/svg" viewBox="0 0 261.68 261.68">
  <defs>
    <style>
      .cls-1 {
        fill: #fff;
      }

      .cls-2 {
        fill: #ffe042;
      }
    </style>
  </defs>
  <path class="cls-2" d="M261.68,130.84c0,72.26-58.58,130.84-130.84,130.84h0C58.58,261.68,0,203.1,0,130.84H0C0,58.58,58.58,0,130.84,0h0c72.26,0,130.84,58.58,130.84,130.84h0Z"/>
  <g>
    <circle class="cls-1" cx="84.5" cy="79.01" r="16.85"/>
    <rect class="cls-1" x="70.46" y="107.1" width="28.09" height="84.26" rx="1.26" ry="1.26"/>
    <path class="cls-1" d="M194.04,137.99v47.75c0,3.09-2.53,5.62-5.62,5.62h-16.85c-3.09,0-5.62-2.53-5.62-5.62v-39.32c0-7.75-6.29-14.04-14.04-14.04s-14.04,6.29-14.04,14.04v39.32c0,3.09-2.53,5.62-5.62,5.62h-16.85c-3.09,0-5.62-2.53-5.62-5.62v-73.02c0-3.09,2.53-5.62,5.62-5.62h16.85c3.09,0,5.62,2.53,5.62,5.62v3.59c5.62-7.27,14.91-12.02,25.28-12.02,15.5,0,30.9,11.23,30.9,33.7Z"/>
  </g>
</svg>