<?xml version="1.0" encoding="UTF-8"?>
<svg id="Capa_1" data-name="Capa 1" xmlns="http://www.w3.org/2000/svg" viewBox="0 0 261.68 261.68">
  <defs>
    <style>
      .cls-1 {
        font-family: Comfortaa-Bold, Comfortaa;
        font-size: 44.49px;
        font-weight: 700;
        letter-spacing: .1em;
      }

      .cls-1, .cls-2 {
        fill: #ffe042;
      }

      .cls-3 {
        fill: #fff;
      }
    </style>
  </defs>
  <path class="cls-2" d="M261.68,130.84c0,72.26-58.58,130.84-130.84,130.84h0C58.58,261.68,0,203.1,0,130.84h0C0,58.58,58.58,0,130.84,0h0c72.26,0,130.84,58.58,130.84,130.84h0Z"/>
  <g>
    <path class="cls-3" d="M130.84,40.01c-50.08,0-90.83,40.75-90.83,90.83s40.75,90.83,90.83,90.83,90.83-40.75,90.83-90.83-40.75-90.83-90.83-90.83ZM98.53,193.23c1.98,4.43,4.15,8.38,6.48,11.82-9.1-3.18-17.44-7.98-24.67-14.06,4.31-3.62,8.94-6.75,13.83-9.33,1.29,4.08,2.74,7.95,4.35,11.57ZM105.47,176.79c8.06-2.74,16.61-4.17,25.37-4.17s17.31,1.43,25.37,4.17c-6.22,20.32-16.12,32.63-25.37,32.63s-19.15-12.31-25.37-32.63ZM94.17,80.02c-4.89-2.59-9.53-5.71-13.83-9.33,7.23-6.08,15.57-10.88,24.67-14.06-2.33,3.44-4.5,7.39-6.48,11.82-1.61,3.62-3.06,7.49-4.35,11.57ZM130.84,52.26c9.25,0,19.15,12.31,25.37,32.63-8.06,2.74-16.61,4.17-25.37,4.17s-17.31-1.43-25.37-4.17c6.22-20.32,16.12-32.63,25.37-32.63ZM163.16,68.45c-1.98-4.43-4.15-8.38-6.48-11.82,9.1,3.18,17.44,7.98,24.67,14.06-4.31,3.62-8.94,6.75-13.83,9.33-1.29-4.08-2.74-7.96-4.35-11.57ZM130.84,101.31c9.79,0,19.35-1.54,28.39-4.5,1.72,8.41,2.85,17.79,3.18,27.91h-63.14c.33-10.13,1.46-19.5,3.18-27.91,9.04,2.97,18.6,4.51,28.39,4.51ZM162.41,136.97c-.33,10.12-1.46,19.5-3.18,27.91-9.04-2.96-18.6-4.5-28.39-4.5s-19.34,1.54-28.39,4.51c-1.72-8.41-2.85-17.79-3.18-27.91h63.14ZM163.16,193.23c1.61-3.62,3.06-7.5,4.35-11.57,4.89,2.59,9.53,5.71,13.83,9.33-7.23,6.08-15.57,10.88-24.67,14.06,2.33-3.44,4.5-7.39,6.48-11.82ZM170.74,169.56c2.23-10.14,3.56-21.16,3.92-32.59h34.53c-1.34,17.3-8.31,33.05-19.07,45.41-5.95-5.14-12.46-9.42-19.38-12.82ZM174.65,124.72c-.35-11.43-1.69-22.46-3.92-32.59,6.92-3.39,13.44-7.68,19.38-12.82,10.76,12.36,17.73,28.11,19.07,45.41h-34.53ZM71.57,79.31c5.94,5.13,12.45,9.43,19.38,12.82-2.23,10.14-3.56,21.16-3.92,32.6h-34.53c1.34-17.3,8.31-33.05,19.07-45.41ZM52.5,136.97h34.53c.35,11.43,1.69,22.46,3.92,32.6-6.92,3.39-13.43,7.68-19.38,12.82-10.76-12.36-17.73-28.11-19.07-45.41Z"/>
    <rect class="cls-3" x="69.84" y="109.15" width="122.01" height="43.38" rx="9.19" ry="9.19"/>
    <text class="cls-1" transform="translate(82.19 142.62)"><tspan x="0" y="0">www</tspan></text>
  </g>
</svg>