<?xml version="1.0" encoding="UTF-8"?>
<svg id="Capa_1" data-name="Capa 1" xmlns="http://www.w3.org/2000/svg" viewBox="0 0 261.68 261.68">
  <defs>
    <style>
      .cls-1 {
        fill: #fff;
      }

      .cls-2 {
        fill: #ffe042;
      }
    </style>
  </defs>
  <path class="cls-2" d="M261.68,130.84c0,72.26-58.58,130.84-130.84,130.84h0C58.58,261.68,0,203.1,0,130.84h0C0,58.58,58.58,0,130.84,0h0c72.26,0,130.84,58.58,130.84,130.84h0Z"/>
  <path class="cls-1" d="M149.72,118.82l52.93-56.61h-20.1l-41.54,44.44-31.81-44.44h-54.97l55.65,77.74-55.65,59.53h20.1l44.27-47.35,33.9,47.35h54.97l-57.74-80.65ZM82.55,76.77h19.17l77.42,108.15h-19.17l-77.42-108.15Z"/>
</svg>