<?xml version="1.0" encoding="UTF-8"?>
<svg id="Capa_1" data-name="Capa 1" xmlns="http://www.w3.org/2000/svg" viewBox="0 0 261.68 261.68">
  <defs>
    <style>
      .cls-1 {
        fill: #fff;
      }

      .cls-2 {
        fill: #ffe042;
      }
    </style>
  </defs>
  <path class="cls-2" d="M261.68,130.84c0,72.26-58.58,130.84-130.84,130.84h0C58.58,261.68,0,203.1,0,130.84h0C0,58.58,58.58,0,130.84,0h0c72.26,0,130.84,58.58,130.84,130.84h0Z"/>
  <path class="cls-1" d="M187.23,75.4h-112.77c-11.14,0-20.18,9.03-20.18,20.17v70.53c0,11.14,9.03,20.17,20.18,20.17h112.77c11.14,0,20.17-9.03,20.17-20.17v-70.53c0-11.14-9.03-20.17-20.17-20.17ZM148.96,135.71l-31.36,15.67c-3.62,1.81-7.88-.82-7.88-4.86v-31.35c0-4.04,4.26-6.67,7.88-4.87l31.36,15.68c4.01,2,4.01,7.72,0,9.73Z"/>
</svg>