<svg xmlns="http://www.w3.org/2000/svg" version="1.1" xmlns:xlink="http://www.w3.org/1999/xlink" xmlns:svgjs="http://svgjs.dev/svgjs" width="1920" height="1080" preserveAspectRatio="none" viewBox="0 0 1920 1080"><g mask="url(&quot;#SvgjsMask1854&quot;)" fill="none"><rect width="1920" height="1080" x="0" y="0" fill="url(&quot;#SvgjsLinearGradient1855&quot;)"></rect><path d="M1920 0L1072.02 0L1920 222.12z" fill="rgba(255, 255, 255, .1)"></path><path d="M1072.02 0L1920 222.12L1920 261.54L570.5999999999999 0z" fill="rgba(255, 255, 255, .075)"></path><path d="M570.5999999999999 0L1920 261.54L1920 734.1L483.7899999999999 0z" fill="rgba(255, 255, 255, .05)"></path><path d="M483.78999999999996 0L1920 734.1L1920 790.1800000000001L372.74999999999994 0z" fill="rgba(255, 255, 255, .025)"></path><path d="M0 1080L479.35 1080L0 1067.02z" fill="rgba(0, 0, 0, .1)"></path><path d="M0 1067.02L479.35 1080L921.9000000000001 1080L0 489.98z" fill="rgba(0, 0, 0, .075)"></path><path d="M0 489.98L921.9000000000001 1080L1328.8500000000001 1080L0 373.17z" fill="rgba(0, 0, 0, .05)"></path><path d="M0 373.1700000000001L1328.8500000000001 1080L1504.92 1080L0 120.01000000000008z" fill="rgba(0, 0, 0, .025)"></path></g><defs><mask id="SvgjsMask1854"><rect width="1920" height="1080" fill="#ffffff"></rect></mask><linearGradient x1="10.94%" y1="-19.44%" x2="89.06%" y2="119.44%" gradientUnits="userSpaceOnUse" id="SvgjsLinearGradient1855"><stop stop-color="rgba(98, 73, 156, 1)" offset="0"></stop><stop stop-color="rgba(125, 93, 199, 1)" offset="1"></stop></linearGradient></defs></svg>